# xmcd
#
# Track frame offsets: 
#        150
#        20580
#        42240
#        62522
#        82695
#        102175
#        121905
#        141827
#        156087
#        177405
#        195657
#        213202
#
# Disc length: 3087 seconds
#
# Revision: 1
# Processed by: cddbd v1.5.2PL0 Copyright (c) Steve Scherf et al.
# Submitted via: ExactAudioCopy v0.99pb4
#
DISCID=970c0d0c
DTITLE=Badwater Bridge - It's Allright Tonight
DYEAR=1973
DGENRE=Rock
TTITLE0=Never Gone To Be
TTITLE1=As Long As We're Together
TTITLE2=Let Me Love You
TTITLE3=Reasons
TTITLE4=This Feeeling
TTITLE5=Always
TTITLE6=Is It Love
TTITLE7=Don't Take Your Love Away
TTITLE8=I Just Want To Feel You
TTITLE9=Giving Al My Love To You
TTITLE10=Join The Party
TTITLE11=It's  Allright Tonight 
EXTD=
EXTT0=
EXTT1=
EXTT2=
EXTT3=
EXTT4=
EXTT5=
EXTT6=
EXTT7=
EXTT8=
EXTT9=
EXTT10=
EXTT11=
PLAYORDER=
